<svg width="35" height="35" viewBox="0 0 35 35" fill="none" xmlns="http://www.w3.org/2000/svg">
<path d="M0.448509 15.965L0.399581 16.0214L0.350652 16.0697C0.350652 16.0697 0.326188 16.1181 0.301724 16.1422L0.244641 16.1905C0.244641 16.1905 0.220177 16.2388 0.195713 16.263C0.195713 16.2872 0.171249 16.2872 0.171249 16.3113C0.146785 16.3355 0.146785 16.3597 0.122321 16.416C0.122321 16.4402 0.0978566 16.4402 0.0978566 16.4644C0.0733925 16.4885 0.0733925 16.5369 0.0489284 16.5691V16.5933C0.0489284 16.5933 0.0163096 16.6738 0.0244643 16.7141V16.7382C0.0244643 16.7866 0 16.8107 0 16.859V17.2134C0 17.2537 1.71639e-07 17.3021 0.0244643 17.3343V17.3584C0.0244643 17.4067 0.0489284 17.4309 0.0489284 17.4792V17.5034C0.0489284 17.5034 0.0733925 17.5759 0.0978566 17.6081C0.0978566 17.6323 0.122321 17.6323 0.122321 17.6564C0.146785 17.6806 0.146785 17.7289 0.171249 17.7611C0.171249 17.7853 0.195713 17.7853 0.195713 17.8095C0.220177 17.8336 0.220177 17.8578 0.244641 17.882C0.244641 17.9061 0.269105 17.9061 0.29357 17.9303C0.318034 17.9545 0.318034 17.9786 0.342498 18.0028L0.391426 18.0511L0.440354 18.0995L0.464818 18.1236L14.6622 30.6322C15.3064 31.1799 16.2768 31.1074 16.8313 30.4711C17.3777 29.8509 17.3206 28.9166 16.709 28.3609L5.50443 18.5586H33.4669C34.315 18.5586 35 17.882 35 17.0443C35 16.2067 34.315 15.5301 33.4669 15.5301H5.50443L16.6927 5.67139C17.3369 5.12368 17.4103 4.16517 16.8558 3.52887C16.3013 2.89256 15.3308 2.82006 14.6866 3.36777L14.654 3.40002L0.481128 15.9086C0.481128 15.9086 0.472973 15.9328 0.456664 15.9328L0.448509 15.965Z" fill="#851AFF"/>
</svg>
