<svg width="90" height="40" viewBox="0 0 90 40" fill="none" xmlns="http://www.w3.org/2000/svg">
<path d="M88.8973 5.82231C87.5414 4.32635 85.5812 4.47999 84.9278 4.52851C83.8986 4.60937 81.6607 5.19158 79.6596 5.76571C79.6596 4.26975 79.3411 2.73336 78.1077 1.62554C76.3762 0.0729841 73.9585 0.380262 72.2842 0.744143C70.2341 1.18889 68.4943 1.78727 67.1548 2.33714C66.9261 2.0056 66.6566 1.69023 66.3054 1.39913C64.4105 -0.17769 61.3558 -0.404105 56.0794 0.630936C51.3176 1.56894 48.1322 3.00829 46.0495 4.32635C45.8126 3.5905 45.6411 3.12959 45.6084 3.03255C45.2245 2.02986 44.2281 1.34253 43.1826 1.39913C40.3321 1.46382 36.5749 2.66059 33.9204 3.63902C33.4712 2.19967 32.8586 1.98943 32.1154 1.74684C31.4538 1.52851 30.4573 1.19697 19.4962 3.60668C17.6585 1.96517 15.2899 1.06759 12.7089 1.09185C8.83738 1.13228 5.08024 3.2428 3.15266 6.46112C-0.236943 12.0972 -2.17269 24.3237 4.14095 33.8493C6.08487 36.7765 9.05791 38.5312 12.7415 38.9193C13.2888 38.9759 13.8524 39.0083 14.4078 39.0083C17.5768 39.0083 20.8766 38.1269 23.8415 36.922C25.5485 37.8277 27.8028 38.321 30.1959 38.321C31.7641 38.321 33.3814 38.1188 34.9414 37.6902C36.7056 37.2131 38.3391 36.4773 39.8257 35.5069C41.8676 36.8331 45.7718 38.8385 50.6397 38.8385C53.0982 38.8385 55.8017 38.329 58.6359 36.9544C58.9545 36.825 59.7712 36.445 60.735 35.7738C61.3721 36.1862 62.2542 36.4935 63.4385 36.4935C63.6836 36.4935 63.9449 36.4773 64.2226 36.453C66.1747 36.2994 68.2575 35.8708 69.9074 35.4746C70.1034 36.1538 70.4464 36.7765 70.9365 37.2697C71.6961 38.046 72.717 38.4584 73.8197 38.4584C74.0729 38.4584 74.3261 38.4342 74.5875 38.3937C77.9689 37.8196 80.0517 37.4476 81.2686 37.2293C83.1472 36.8897 84.6909 35.5635 85.3035 33.7684C86.9615 28.8924 88.4236 19.6417 89.2975 14.1188C89.5099 12.7684 89.6814 11.701 89.7957 11.0784C90.0734 9.55816 90.2858 7.3587 88.8973 5.8304V5.82231ZM65.1946 8.76571C65.1129 8.73336 65.0394 8.69293 64.9577 8.6525C65.0312 8.69293 65.1129 8.73336 65.1946 8.76571ZM64.7944 8.56355C64.7209 8.51503 64.6555 8.46651 64.5902 8.40991C64.6555 8.45843 64.7209 8.51503 64.7944 8.56355ZM63.9123 7.64172C63.7652 7.38296 63.6672 7.10802 63.6264 6.82501C63.6754 7.11611 63.7734 7.39104 63.9123 7.64172ZM64.1491 7.98943C64.0838 7.90048 64.0184 7.81153 63.9613 7.72258C64.0184 7.81961 64.0756 7.90856 64.1491 7.98943Z" fill="white"/>
<path d="M82.5266 8.18358C80.0355 7.00299 77.3483 7.59328 75.7311 9.54207C75.6167 8.77388 75.3962 8.02186 75.045 7.29409C74.0077 5.15124 72.0556 3.53398 69.7196 3.38843C64.6638 3.08115 62.0093 8.879 61.1354 13.1809C60.3431 17.0623 60.5391 22.1405 62.0502 26.0219C62.385 27.0731 62.8343 28.0515 63.4223 28.8763C63.7572 29.7658 64.2881 30.5582 65.1539 31.1485C67.1386 32.507 69.5726 31.8197 71.0755 30.162C72.5375 33.0165 75.3064 35.1108 78.5979 34.7065C78.8593 34.6741 79.1207 34.6256 79.3657 34.5609C79.7904 34.5043 80.2151 34.4154 80.6235 34.286C83.6946 33.3318 85.6793 30.437 86.6105 27.3642C87.6314 23.9922 87.8928 20.2968 87.3782 16.7712C86.8963 13.4801 85.7038 9.67145 82.5266 8.16741V8.18358Z" fill="#851AFF"/>
<path d="M56.4881 4.16476C55.8183 4.24562 55.1567 4.38309 54.5033 4.57716C53.2537 4.85209 52.0367 5.33727 50.9095 6.00034C47.8548 7.80357 44.9226 11.0704 44.9961 14.782C45.0206 16.0273 45.4127 17.2887 46.1232 18.3319C45.331 18.8332 44.604 19.4478 43.9915 20.1351C42.2517 20.9923 40.9531 22.6014 40.6019 25.189C39.4666 33.4936 50.3378 36.9707 56.8066 34.7712C60.0165 33.6796 62.769 30.9788 63.2836 27.5745C63.6838 24.9383 62.8507 22.5691 61.5357 20.4181C64.035 19.2294 65.9381 16.6904 66.322 13.747C67.0816 7.89252 62.3443 3.4936 56.4881 4.18093V4.16476Z" fill="#851AFF"/>
<path d="M39.7033 6.18637C36.5914 5.51521 34.2554 7.17289 32.8914 9.55025C32.4259 8.64459 31.8133 7.81979 30.9883 7.1082C28.5789 5.02195 24.2908 4.21332 21.424 5.84675C18.3611 7.58529 17.5198 11.3939 17.7158 14.6446C17.9364 18.243 18.7123 21.9627 20.0355 25.3184C22.5429 31.6904 29.1588 36.1055 35.987 33.0327C42.0964 30.2753 45.9189 22.0112 45.8209 15.6149C45.7637 11.6931 44.0158 7.12437 39.7115 6.19446L39.7033 6.18637Z" fill="#851AFF"/>
<path d="M29.575 18.5502C28.3662 16.0353 26.2589 14.9033 24.0128 14.8062C23.8739 12.5744 23.4165 10.3669 22.1587 8.48278C20.5415 6.06499 17.9278 4.62563 15.0446 4.69032C8.83718 4.83588 5.25972 10.7146 4.81866 16.4882C4.39394 22.1485 5.91314 29.1593 10.5197 32.7334C14.7669 36.0165 20.8274 36.3561 25.1808 33.0812C29.3953 29.9033 32.0253 23.6526 29.5668 18.5421L29.575 18.5502Z" fill="#851AFF"/>
<path d="M14.6038 37.2375C14.0974 37.2375 13.5992 37.2132 13.101 37.1647C9.85838 36.8251 7.35906 35.3696 5.66834 32.8386C-0.865826 23.0785 2.19707 11.3776 4.70455 7.23748C6.35443 4.51241 9.57251 2.72535 12.9049 2.68492C15.8943 2.64449 18.5488 4.06767 20.1415 6.57441C23.572 11.9518 22.3141 18.2429 22.1018 19.1404C24.9115 20.2402 29.2567 22.1162 31.6253 23.9599C33.0547 25.0677 33.7653 26.2563 33.7408 27.4693C33.7163 28.8844 32.679 29.7981 32.4094 30.0165C30.0898 32.2402 21.8404 37.2294 14.5957 37.2294L14.6038 37.2375ZM13.0111 4.37495C13.0111 4.37495 12.9539 4.37495 12.9213 4.37495C10.1688 4.40729 7.51425 5.8709 6.16657 8.10271C3.83878 11.9437 1.00458 22.8116 7.08136 31.9006C8.4862 33.9949 10.569 35.1997 13.2725 35.4828C20.2232 36.2105 29.0607 30.914 31.2578 28.7873C31.2904 28.755 31.3231 28.7307 31.3558 28.7065C31.3558 28.7065 32.0419 28.189 32.0419 27.4369C32.0419 26.782 31.5436 26.0461 30.5717 25.2941C27.1903 22.658 18.9654 19.7793 18.8837 19.7469C18.4916 19.6014 17.2665 19.3103 16.6457 19.7469C16.2864 20.0057 16.1148 20.5394 16.1393 21.3318C16.2537 25.1243 17.2175 30.2671 17.2257 30.3156L15.5513 30.6229C15.5104 30.4046 14.5548 25.2941 14.4405 21.3723C14.3996 19.9814 14.808 18.9625 15.6575 18.3642C17.1276 17.3291 19.2349 18.065 19.4718 18.1539C19.5371 18.1782 19.9128 18.3076 20.4927 18.5259C20.7459 17.1997 21.5219 11.8952 18.704 7.47198C17.4217 5.46659 15.4043 4.36686 13.0111 4.36686V4.37495Z" fill="#070001"/>
<path d="M33.3242 19.383L31.6171 19.3588C31.7151 13.2456 31.5518 6.44504 31.1271 4.86013C29.7467 4.91674 24.2988 5.96795 19.4227 7.04342L19.0552 5.39382C24.3315 4.2294 30.8493 2.91134 31.9112 3.26714C32.5319 3.4693 33.561 3.80892 33.316 19.383H33.3242Z" fill="#070001"/>
<path d="M30.5552 36.5501C27.7373 36.5501 25.336 35.8143 24.021 34.7954L25.0746 33.4693C26.651 34.6903 30.4653 35.4181 34.4267 34.3507C37.5712 33.5016 41.8103 31.2536 44.1789 25.3022C47.1193 17.6364 43.9502 7.26173 43.0844 4.71456C38.9597 5.07036 32.5318 7.88437 32.4664 7.90863L31.7722 6.36416C32.0744 6.22669 39.2538 3.08923 43.6562 2.9841C44.0482 2.97602 44.3423 3.19435 44.4729 3.52588C44.6771 4.05149 49.3572 16.5286 45.7634 25.9005C43.1334 32.507 38.388 35.0138 34.8677 35.9679C33.3812 36.3642 31.9192 36.5421 30.5552 36.5421V36.5501Z" fill="#070001"/>
<path d="M63.2509 21.9706C62.1401 21.9706 60.8578 21.3561 59.4448 20.6202C57.1088 19.3992 54.0786 16.5852 53.9479 16.4639L55.1159 15.2348C55.1159 15.2348 58.1053 18.0084 60.237 19.1243C61.16 19.6014 62.8671 20.4989 63.5368 20.2321C63.594 20.2078 63.7818 20.135 63.9289 19.6984C64.5088 17.9841 65.3827 7.60136 65.3745 6.48546C65.3664 6.43694 65.3582 6.38033 65.3582 6.32373C65.3664 5.1674 65.3337 4.37494 64.7538 3.89785C63.7655 3.08923 61.2498 3.07306 57.2722 3.84934C48.4184 5.5798 45.9027 9.08114 45.87 9.11349L44.457 8.17548C44.5714 8.00567 47.2912 4.07575 56.9455 2.19166C61.6419 1.27791 64.3862 1.3992 65.8401 2.59597C67.0898 3.62292 67.0734 5.19165 67.0571 6.33182H67.0489C67.0898 6.94637 67.0081 8.43424 66.616 12.5421C66.3383 15.4127 65.9299 19.0677 65.5379 20.224C65.2684 21.0084 64.811 21.534 64.1657 21.7846C63.8717 21.8979 63.5695 21.9545 63.2428 21.9545L63.2509 21.9706Z" fill="#070001"/>
<path d="M51.2195 37.0514C44.62 37.0514 39.8418 33.0649 39.7847 33.0164L40.8955 31.7388C41.214 32.0056 48.7038 38.2078 57.7945 33.8169C57.8925 33.7765 61.2249 32.4584 62.2867 29.321C63.0626 27.0245 62.4664 24.2832 60.5143 21.1619L61.96 20.2725C64.1898 23.8466 64.8432 27.073 63.8876 29.8708C62.5644 33.7603 58.6276 35.2967 58.4642 35.3533C55.9159 36.5905 53.4574 37.0514 51.2195 37.0514Z" fill="#070001"/>
<path d="M75.7227 19.5367L74.0483 19.2214C74.0646 19.1405 75.6492 10.8925 76.0086 7.61758C76.1801 6.01651 76.2944 4.54481 75.7145 4.02729C75.2898 3.65532 74.2933 3.62297 72.8395 3.93025C68.5024 4.86826 66.142 6.25909 66.1175 6.26718L65.2354 4.82783C65.3415 4.76314 67.8327 3.28335 72.4719 2.28066C74.571 1.82783 75.9677 1.98147 76.8498 2.76583C78.026 3.81704 77.928 5.66071 77.6993 7.7874C77.3317 11.127 75.7799 19.189 75.7145 19.5286L75.7227 19.5367Z" fill="#070001"/>
<path d="M73.4932 36.6149C72.8398 36.6149 72.2517 36.3804 71.8107 35.9357C71.1736 35.2888 70.9204 34.278 71.1327 33.2268C71.3859 31.9492 71.7616 29.9518 72.1047 28.1486C72.6193 25.4316 72.848 24.2187 72.9133 23.9761L74.555 24.4128C74.4978 24.6392 74.1139 26.6688 73.7791 28.4559C73.436 30.2672 73.0603 32.2726 72.8071 33.5583C72.7091 34.0516 72.7989 34.5206 73.0358 34.7632C73.093 34.8198 73.2645 34.9896 73.7056 34.9168C77.0952 34.3427 79.1861 33.9788 80.4031 33.7605C81.081 33.6392 81.6364 33.1702 81.8569 32.5314C83.4333 27.9222 84.9362 18.5017 85.7448 13.4397C85.9653 12.0489 86.1368 10.9572 86.2593 10.3184C86.5779 8.59605 86.3083 8.07853 86.1777 7.93298C86.0143 7.75508 85.6304 7.69039 84.9688 7.73891C83.7273 7.83594 78.8349 9.2753 77.0543 9.81708L76.5479 8.20791C77.2177 7.99767 83.1719 6.18635 84.83 6.05697C85.6713 5.99228 86.7249 6.01654 87.4355 6.8009C88.1134 7.54484 88.2768 8.75778 87.9337 10.6176C87.8194 11.2483 87.6478 12.3238 87.4273 13.6985C86.6105 18.809 85.0995 28.3265 83.4741 33.0731C83.0576 34.2861 81.9958 35.1917 80.7135 35.4182C79.4883 35.6365 77.3974 36.0084 73.9996 36.5745C73.8281 36.6068 73.6647 36.6149 73.5095 36.6149H73.4932Z" fill="#070001"/>
<path d="M50.0518 23.2887C48.5163 21.3641 45.8945 19.2617 45.8618 19.2375L46.9318 17.9275C47.0461 18.0164 49.7333 20.1674 51.3914 22.2456L50.0518 23.2887Z" fill="#070001"/>
<path d="M63.8389 34.852C62.8261 34.852 62.0502 34.5528 61.5438 33.9625C60.7025 32.9679 61.0537 31.6337 61.0945 31.4882L62.7362 31.9491L61.9195 31.7146L62.7362 31.941C62.6954 32.1027 62.6219 32.6202 62.8506 32.879C63.063 33.1216 63.5775 33.2186 64.3045 33.1377C67.8901 32.8547 72.1863 31.472 72.2271 31.4558L72.758 33.0569C72.5783 33.1135 68.2331 34.5124 64.4678 34.8116C64.2473 34.8359 64.0431 34.8439 63.8471 34.8439L63.8389 34.852Z" fill="#070001"/>
</svg>
