<svg width="300" height="300" viewBox="0 0 300 300" fill="none" xmlns="http://www.w3.org/2000/svg">
<mask id="mask0_605_43" style="mask-type:luminance" maskUnits="userSpaceOnUse" x="0" y="0" width="300" height="300">
<path d="M300 0H0V300H300V0Z" fill="white"/>
</mask>
<g mask="url(#mask0_605_43)">
<path d="M218.1 249.62C229.89 237.29 236.96 221.71 236.96 204.74C236.96 180.21 222.23 158.55 199.72 145.49C210.47 140.97 221.11 132.25 229.25 120.19C231.66 116.62 233.68 112.96 235.39 109.26L190.78 83.28C190.03 58.7 177.5 38.85 159.83 36.68C139.37 34.17 119.81 56.31 116.15 86.14C113.73 105.87 118.89 123.96 128.56 134.72C90.91 142.65 63.05 170.99 63.05 204.74C63.05 221.73 70.13 237.33 81.95 249.66C81.95 249.66 96.39 265.28 150 265.28C203.61 265.28 218.1 249.61 218.1 249.61V249.62Z" fill="white"/>
<path d="M81.95 251.67C81.42 251.67 80.9001 251.46 80.5101 251.05C67.7801 237.76 61.05 221.75 61.05 204.74C61.05 171.62 87.1601 142.71 124.94 133.49C115.92 121.73 111.91 104.23 114.16 85.89C115.98 71.07 121.67 57.59 130.19 47.95C138.89 38.1 149.5 33.39 160.07 34.69C178.27 36.92 191.59 56.35 192.73 82.1L236.39 107.53C237.28 108.05 237.63 109.16 237.2 110.1C235.36 114.08 233.24 117.85 230.91 121.3C223.67 132.02 214.21 140.57 203.96 145.72C225.94 159.74 238.95 181.55 238.95 204.73C238.95 221.72 232.24 237.71 219.54 250.99C218.78 251.79 217.51 251.82 216.71 251.05C215.91 250.29 215.88 249.02 216.65 248.22C228.62 235.7 234.95 220.66 234.95 204.72C234.95 181.87 221.4 160.37 198.71 147.2C198.05 146.82 197.67 146.1 197.72 145.34C197.77 144.58 198.24 143.92 198.94 143.62C209.8 139.05 219.98 130.33 227.59 119.04C229.48 116.24 231.22 113.22 232.79 110.04L189.77 84.98C189.17 84.63 188.8 84 188.78 83.31C188.05 59.41 175.78 40.63 159.59 38.64C150.37 37.51 140.99 41.75 133.19 50.58C125.2 59.62 119.86 72.33 118.13 86.36C115.88 104.67 120.45 122.68 130.05 133.36C130.53 133.89 130.69 134.64 130.46 135.32C130.23 136 129.67 136.51 128.97 136.66C91.33 144.59 65.0501 172.58 65.0501 204.72C65.0501 220.68 71.39 235.73 83.39 248.26C84.15 249.06 84.1301 250.32 83.3301 251.09C82.9401 251.46 82.44 251.65 81.95 251.65V251.67Z" fill="black"/>
<path d="M229.25 120.19C231.66 116.62 233.68 112.96 235.39 109.26L171.98 72.33C170.38 74.26 168.83 76.27 167.38 78.41C154.83 96.99 151.77 118.16 158.12 132.5" stroke="black" stroke-width="4" stroke-linecap="round" stroke-linejoin="round"/>
</g>
</svg>
