<svg width="300" height="301" viewBox="0 0 300 301" fill="none" xmlns="http://www.w3.org/2000/svg">
<path d="M218.1 53.8701C237.84 56.2601 253.14 73.0401 253.14 93.4201C253.14 115.44 235.29 133.29 213.27 133.29C211.86 133.29 210.48 133.21 209.11 133.07C205.15 134.37 200.93 135.09 196.54 135.09C179.42 135.09 164.82 124.43 158.93 109.39H141.07C135.18 124.42 120.58 135.09 103.46 135.09C99.1101 135.09 94.9201 134.38 90.9901 133.11C89.5901 133.26 88.1701 133.34 86.7301 133.34C64.7101 133.34 46.8601 115.49 46.8601 93.4701C46.8601 73.0701 62.1901 56.2801 81.9501 53.9101" fill="white"/>
<path d="M218.1 53.8701C237.84 56.2601 253.14 73.0401 253.14 93.4201C253.14 115.44 235.29 133.29 213.27 133.29C211.86 133.29 210.48 133.21 209.11 133.07C205.15 134.37 200.93 135.09 196.54 135.09C179.42 135.09 164.82 124.43 158.93 109.39H141.07C135.18 124.42 120.58 135.09 103.46 135.09C99.1101 135.09 94.9201 134.38 90.9901 133.11C89.5901 133.26 88.1701 133.34 86.7301 133.34C64.7101 133.34 46.8601 115.49 46.8601 93.4701C46.8601 73.0701 62.1901 56.2801 81.9501 53.9101" stroke="black" stroke-width="4" stroke-linecap="round" stroke-linejoin="round"/>
<path d="M197.6 151.8H150.05V217.95H197.6V151.8Z" fill="white" stroke="black" stroke-width="4" stroke-linecap="round" stroke-linejoin="round"/>
<path d="M149.95 151.8H102.4V217.95H149.95V151.8Z" fill="white" stroke="black" stroke-width="4" stroke-linecap="round" stroke-linejoin="round"/>
<path d="M206.39 240.739C226.277 229.257 234.927 207.007 225.709 191.041C216.492 175.076 192.897 171.441 173.01 182.923C153.123 194.405 144.473 216.656 153.691 232.621C162.908 248.587 186.503 252.221 206.39 240.739Z" fill="white" stroke="black" stroke-width="4" stroke-linecap="round" stroke-linejoin="round"/>
<path d="M146.3 232.622C155.518 216.657 146.869 194.407 126.981 182.925C107.094 171.443 83.4994 175.077 74.2818 191.042C65.0642 207.008 73.7137 229.258 93.6011 240.74C113.489 252.222 137.083 248.588 146.3 232.622Z" fill="white" stroke="black" stroke-width="4" stroke-linecap="round" stroke-linejoin="round"/>
<path d="M150 98.2001H89.64L84 176.22H150H216L210.36 98.2001H150Z" fill="white" stroke="black" stroke-width="4" stroke-linecap="round" stroke-linejoin="round"/>
<path d="M150 135.93V175.59" stroke="black" stroke-width="4" stroke-linecap="round" stroke-linejoin="round"/>
</svg>
