<svg width="150" height="151" viewBox="0 0 150 151" fill="none" xmlns="http://www.w3.org/2000/svg">
<mask id="mask0_605_62" style="mask-type:luminance" maskUnits="userSpaceOnUse" x="0" y="0" width="150" height="151">
<path d="M150 0.0400391H0V150.04H150V0.0400391Z" fill="white"/>
</mask>
<g mask="url(#mask0_605_62)">
<path d="M100.93 96.44C109.082 96.44 115.69 86.8589 115.69 75.04C115.69 63.2211 109.082 53.64 100.93 53.64C92.7784 53.64 86.1702 63.2211 86.1702 75.04C86.1702 86.8589 92.7784 96.44 100.93 96.44Z" stroke="black" stroke-width="4" stroke-linecap="round" stroke-linejoin="round"/>
<path d="M94.4302 90.23C98.992 90.23 102.69 83.4292 102.69 75.04C102.69 66.6508 98.992 59.85 94.4302 59.85C89.8683 59.85 86.1702 66.6508 86.1702 75.04C86.1702 83.4292 89.8683 90.23 94.4302 90.23Z" fill="black"/>
<path d="M49.0701 96.44C57.2218 96.44 63.8301 86.8589 63.8301 75.04C63.8301 63.2211 57.2218 53.64 49.0701 53.64C40.9183 53.64 34.3101 63.2211 34.3101 75.04C34.3101 86.8589 40.9183 96.44 49.0701 96.44Z" stroke="black" stroke-width="4" stroke-linecap="round" stroke-linejoin="round"/>
<path d="M55.5701 90.23C60.1319 90.23 63.8301 83.4292 63.8301 75.04C63.8301 66.6508 60.1319 59.85 55.5701 59.85C51.0082 59.85 47.3101 66.6508 47.3101 75.04C47.3101 83.4292 51.0082 90.23 55.5701 90.23Z" fill="black"/>
<path d="M75 88.05C76.3807 88.05 77.5 86.9308 77.5 85.55C77.5 84.1693 76.3807 83.05 75 83.05C73.6193 83.05 72.5 84.1693 72.5 85.55C72.5 86.9308 73.6193 88.05 75 88.05Z" fill="black"/>
</g>
</svg>
