<svg width="120" height="120" viewBox="0 0 120 120" fill="none" xmlns="http://www.w3.org/2000/svg">
<g clip-path="url(#clip0_142_932)">
<mask id="mask0_142_932" style="mask-type:luminance" maskUnits="userSpaceOnUse" x="0" y="0" width="120" height="120">
<path d="M120 0H0V120H120V0Z" fill="white"/>
</mask>
<g mask="url(#mask0_142_932)">
<path d="M107.93 36.58C107.69 30.62 102.5 25.98 96.32 26.23C96.24 26.23 96.16 26.25 96.07 26.25C96.6 24.94 96.84 23.48 96.69 21.96C96.24 17.3 92.17 13.63 87.48 13.68C82.45 13.73 78.47 17.8 78.42 22.74C76.47 21.66 74.11 21.25 71.64 21.88C68.36 22.72 65.77 25.41 65.04 28.72C64.5 31.16 64.97 33.41 66.03 35.26C65.17 35.84 64.56 36.61 64.34 37.55C64.1 38.58 64.37 39.64 65.02 40.62C61.88 42.58 59.83 46.37 60 50.64C60.03 51.35 60.12 52.05 60.26 52.72C60.39 53.34 59.88 53.91 59.25 53.84C57.7 53.67 57.01 53.58 55.38 53.59L54.46 52.38C55.04 50.34 55.25 47.97 55.07 45.44C56.54 44.92 57.91 43.98 58.95 42.51C60.65 40.1 60.87 36.86 59.49 34.26C58.47 32.35 56.86 31.08 55.06 30.46C57.35 26.56 57.16 21.58 54.19 18.01C50.37 13.42 43.43 12.91 38.68 16.86C38.62 16.91 38.56 16.97 38.5 17.03C38.12 15.67 37.43 14.37 36.39 13.25C33.2 9.82001 27.73 9.39001 24.04 12.27C20.08 15.37 19.39 21.03 22.36 24.98C20.16 25.3 18.03 26.42 16.46 28.42C14.37 31.08 13.95 34.79 15.39 37.86C16.45 40.12 18.19 41.62 20.16 42.45C19.83 43.43 19.82 44.42 20.21 45.29C20.65 46.25 21.51 46.93 22.61 47.31C21.31 50.78 21.99 55.03 24.72 58.32C25.79 59.61 27.08 60.62 28.45 61.32C29.07 61.64 29.21 62.47 28.69 62.94C23.21 67.9 19.88 74.45 19.88 81.63C19.88 97.13 35.39 109.69 54.53 109.69C73.67 109.69 89.18 97.13 89.18 81.63C89.18 76.29 87.34 71.3 84.14 67.06C83.75 66.54 83.97 65.81 84.57 65.56C87.26 64.42 89.81 62.08 91.91 58.89C93.39 59.38 95.05 59.46 96.78 58.92C99.59 58.04 101.74 55.6 102.22 52.7C102.57 50.56 102.07 48.58 101.02 46.99C105.21 45.29 108.09 41.23 107.91 36.59L107.93 36.58Z" fill="white" stroke="black" stroke-width="1.8" stroke-linecap="round" stroke-linejoin="round"/>
<path d="M29.45 59.89L30.99 63.98L53.97 55.17L52.79 51.63L38.4399 51.08L29.45 59.89Z" fill="white"/>
<path d="M61.6 52.54L60.6 57.26L81.57 66.52L84.03 64.07L74.94 52.17L61.6 52.54Z" fill="white"/>
</g>
</g>
<defs>
<clipPath id="clip0_142_932">
<rect width="120" height="120" fill="white"/>
</clipPath>
</defs>
</svg>
