<svg width="150" height="150" viewBox="0 0 150 150" fill="none" xmlns="http://www.w3.org/2000/svg">
<g clip-path="url(#clip0_307_412)">
<path d="M82.8577 66.3115C90.2077 29.4115 67.1481 17.5096 52.9269 13.7019L50.3712 24.4788L38.6423 20.4692C28.5346 46.2404 39.8596 62.0711 52.9327 71.3019C40.1019 77.5904 31.4885 89.1865 31.4885 102.462C31.4885 110.965 35.0308 118.771 40.9442 124.944C40.9442 124.944 53.0423 138.669 75.1096 138.669C97.1769 138.669 109.079 124.921 109.079 124.921C114.981 118.754 118.517 110.954 118.517 102.462C118.517 90.1846 111.144 79.3442 99.8827 72.8135C113.983 63.8885 128.412 47.9596 117.629 20.475L105.9 24.4846L103.344 13.7077C95.4231 15.8308 84.7558 20.4635 78.1327 30.5365" fill="white"/>
<path d="M82.8577 66.3115C90.2077 29.4115 67.1481 17.5096 52.9269 13.7019L50.3712 24.4788L38.6423 20.4692C28.5346 46.2404 39.8596 62.0711 52.9327 71.3019C40.1019 77.5904 31.4885 89.1865 31.4885 102.462C31.4885 110.965 35.0308 118.771 40.9442 124.944C40.9442 124.944 53.0423 138.669 75.1096 138.669C97.1769 138.669 109.079 124.921 109.079 124.921C114.981 118.754 118.517 110.954 118.517 102.462C118.517 90.1846 111.144 79.3442 99.8827 72.8135C113.983 63.8885 128.412 47.9596 117.629 20.475L105.9 24.4846L103.344 13.7077C95.4231 15.8308 84.7558 20.4635 78.1327 30.5365" stroke="black" stroke-width="3.5" stroke-linecap="round" stroke-linejoin="round"/>
</g>
<defs>
<clipPath id="clip0_307_412">
<rect width="150" height="150" fill="white"/>
</clipPath>
</defs>
</svg>
